<svg id="Layer_1" data-name="Layer 1" xmlns="http://www.w3.org/2000/svg" viewBox="0 0 50 57.14"><title>Artboard 1</title><path d="M21.07,57.14a9.35,9.35,0,0,0,9.29-9.29v-4A10.4,10.4,0,0,0,32.82,43a10.36,10.36,0,0,0,7-1.78C45.69,41.08,50,37,50,30.06V27.68c0-6.7-4.46-11-4.46-14.2v-.3a3.78,3.78,0,0,0,.89-2.47V3.57A3.41,3.41,0,0,0,43.21,0H17.5a3.41,3.41,0,0,0-3.21,3.57v7.14a3.78,3.78,0,0,0,.89,2.47v.3c0,.78-.69,1.66-2.64,3.37h0a27.49,27.49,0,0,1-3.71,2.89C5.42,21.85,0,23.16,0,28.21c0,6.35,3.94,10.27,9.29,10.27a12.89,12.89,0,0,0,2.5-.24v9.62a9.41,9.41,0,0,0,9.29,9.29Zm0-5.36a4.06,4.06,0,0,1-3.93-3.93V30.18c-1.93,0-3.93,2.95-7.86,2.95-2.95,0-3.93-2.3-3.93-4.91,0-1,3.65-2.28,6.26-3.9a32.42,32.42,0,0,0,4.45-3.44c2.05-1.8,4.09-3.78,4.42-6.59H40.21c.42,4.78,4.43,8.32,4.43,13.39v2.38c0,4.52-2.48,6.38-6.84,5.65a4.63,4.63,0,0,1-6,1.44A5,5,0,0,1,25,37.7V47.86a4,4,0,0,1-3.93,3.93ZM36.61,7.14a2.68,2.68,0,1,1,2.68,2.68A2.68,2.68,0,0,1,36.61,7.14Z" style="fill:#adb5bd"/></svg>