<svg id="Layer_1" data-name="Layer 1" xmlns="http://www.w3.org/2000/svg" viewBox="0 0 50 57.14"><title>point2</title><ellipse cx="39.29" cy="7.14" rx="2.68" ry="2.68" style="fill:#fff"/><path d="M50,27.68v2.37c0,7-4.31,11-10.17,11.16a10.38,10.38,0,0,1-7,1.78,10.35,10.35,0,0,1-2.46.89v4a9.29,9.29,0,0,1-18.57,0V38.24a13.17,13.17,0,0,1-2.5.24C3.94,38.48,0,34.57,0,28.21c0-5,5.42-6.36,8.79-8.45a26.25,26.25,0,0,0,3.71-2.88l0,0h0c2-1.71,2.64-2.59,2.64-3.37v-.3a3.78,3.78,0,0,1-.89-2.47V3.57A3.4,3.4,0,0,1,17.5,0H43.21a3.41,3.41,0,0,1,3.22,3.57v7.14a3.78,3.78,0,0,1-.89,2.47v.3C45.54,16.68,50,21,50,27.68Zm-5.36,2.37V27.68c0-5.08-4-8.62-4.43-13.4H20.49c-.33,2.82-2.37,4.8-4.42,6.6a32.32,32.32,0,0,1-4.45,3.43C9,25.93,5.36,27.23,5.36,28.21c0,2.61,1,4.91,3.93,4.91,3.92,0,5.92-2.94,7.85-2.94V47.86a4.06,4.06,0,0,0,3.93,3.92A4,4,0,0,0,25,47.86V37.7a5,5,0,0,0,6.81-.56,4.63,4.63,0,0,0,6-1.44C42.17,36.43,44.64,34.58,44.64,30.05ZM42,7.14a2.68,2.68,0,1,0-2.67,2.68A2.67,2.67,0,0,0,42,7.14Z" style="fill:#adb5bd"/><path d="M44.64,27.68v2.37c0,4.53-2.47,6.38-6.84,5.65a4.63,4.63,0,0,1-6,1.44A5,5,0,0,1,25,37.7V47.86a4,4,0,0,1-3.93,3.92,4.06,4.06,0,0,1-3.93-3.92V30.18c-1.93,0-3.93,2.94-7.85,2.94-2.95,0-3.93-2.3-3.93-4.91,0-1,3.65-2.28,6.26-3.9a32.32,32.32,0,0,0,4.45-3.43c2.05-1.8,4.09-3.78,4.42-6.6H40.21C40.63,19.06,44.64,22.6,44.64,27.68Z" style="fill:#fff"/></svg>