<?xml version="1.0" standalone="no"?>
<!DOCTYPE svg PUBLIC "-//W3C//DTD SVG 20010904//EN"
 "http://www.w3.org/TR/2001/REC-SVG-20010904/DTD/svg10.dtd">
<svg version="1.0" xmlns="http://www.w3.org/2000/svg"
 width="310.000000pt" height="310.000000pt" viewBox="0 0 310.000000 310.000000"
 preserveAspectRatio="xMidYMid meet">
<metadata>
Created by potrace 1.11, written by Peter Selinger 2001-2013
</metadata>
<g transform="translate(0.000000,310.000000) scale(0.100000,-0.100000)"
fill="#000000" stroke="none">
<path d="M1558 3006 c-1 -2 -43 -6 -93 -10 -126 -8 -160 -14 -245 -43 -81 -28
-140 -55 -182 -85 -27 -18 -27 -18 -37 0 -13 25 -55 33 -80 16 -10 -8 -33 -49
-51 -91 -18 -43 -35 -82 -39 -88 -3 -5 -6 -12 -6 -15 -2 -18 -50 -120 -58
-120 -5 0 -6 8 -2 18 3 9 15 55 26 102 11 47 24 99 29 115 22 72 34 131 31
145 -5 25 -33 50 -55 50 -37 -1 -54 -24 -84 -120 -17 -52 -43 -135 -59 -185
-15 -49 -32 -88 -38 -85 -13 6 -11 25 19 180 14 70 23 138 21 150 -6 32 -24
50 -49 50 -49 0 -61 -26 -107 -237 -16 -72 -27 -103 -37 -103 -11 0 -13 18 -8
103 6 120 -4 147 -54 147 -46 0 -61 -34 -75 -165 -2 -16 -4 -30 -5 -30 -1 0
-3 -16 -6 -35 -6 -45 -44 -277 -51 -304 -12 -55 -15 -189 -4 -231 11 -44 10
-48 -13 -66 -18 -14 -26 -33 -31 -71 -4 -29 -9 -62 -11 -73 -5 -23 -64 -385
-71 -430 -2 -16 -10 -64 -17 -105 -13 -74 -13 -162 -1 -230 8 -49 13 -78 20
-130 3 -25 13 -76 20 -115 8 -38 17 -88 21 -110 3 -22 14 -83 24 -135 10 -52
21 -115 25 -140 4 -24 8 -47 10 -50 2 -3 6 -24 9 -46 4 -22 8 -49 10 -59 12
-56 47 -232 50 -248 1 -10 7 -22 13 -25 8 -5 2425 -8 2491 -3 7 1 11 4 8 9 -2
4 -5 34 -7 67 -9 244 -233 426 -648 530 -89 22 -131 30 -206 40 -16 3 -59 9
-95 13 -36 5 -71 7 -77 5 -8 -3 -13 3 -13 15 0 15 15 25 61 43 83 31 202 110
268 178 70 72 142 182 176 270 22 55 36 75 70 99 81 57 125 140 125 236 0 47
-14 104 -33 133 -5 7 -5 50 -1 95 47 514 -110 902 -431 1070 -53 27 -149 62
-200 72 -16 4 -41 9 -55 11 -14 3 -56 8 -95 11 -38 3 -75 7 -82 9 -6 2 -13 2
-15 1z m-832 -1617 c10 -12 31 -27 46 -35 16 -8 31 -28 39 -51 67 -208 257
-406 462 -483 54 -20 72 -42 45 -53 -7 -2 -90 -3 -184 -2 -159 2 -175 4 -225
27 -115 54 -167 137 -205 333 -9 47 -12 285 -3 285 3 0 14 -9 25 -21z"/>
</g>
</svg>
